<!-- <?xml version="1.0" encoding="UTF-8" standalone="no"?>
<svg
   width="308.7612359841165"
   height="304.915625"
   viewBox="0 0 106.00782394174519 104.68749999999999"
   class="css-1j8o68f"
   version="1.1"
   id="svg23"
   sodipodi:docname="logo.svg"
   xmlns:inkscape="http://www.inkscape.org/namespaces/inkscape"
   xmlns:sodipodi="http://sodipodi.sourceforge.net/DTD/sodipodi-0.dtd"
   xmlns="http://www.w3.org/2000/svg"
   xmlns:svg="http://www.w3.org/2000/svg">
  <sodipodi:namedview
     id="namedview25"
     pagecolor="#ffffff"
     bordercolor="#000000"
     borderopacity="0.25"
     inkscape:showpageshadow="2"
     inkscape:pageopacity="0.0"
     inkscape:pagecheckerboard="0"
     inkscape:deskcolor="#d1d1d1" />
  <defs
     id="SvgjsDefs2684" />
  <g
     id="SvgjsG2685"
     featurekey="rootContainer"
     transform="matrix(0.9820592540669653,0,0,0.9820592540669653,-0.054560523427421584,0)"
     fill="#ff4a3f">
    <g
       id="g17">
      <path
         d="M19.8 15.3h.5l-.4-.2zm.5.1zm.8-.7c0 .1 0 .1.1.1l.4-.3c-.2-.1-.3-.1-.5.2zm.4-.2zm-4.1 2.3zm-.2.6l.3-.2c.1-.1.1-.2.1-.2h-.2l-.2.4c-.1-.1-.1 0 0 0zm2.2-2.9h-.1l-.2.2h.3zm-2.1 2.4l.6-.5c.1-.1.1-.2.1-.3h-.3l-1.2 1.1-.2.4.7-.6zm-1.1.8z"
         id="path3" />
      <path
         d="M9.7 25v-.2a1.7 1.7 0 0 1 .7-1.1l.9-.6.5-.6.7-.7.4-.4.4-.3a1.9 1.9 0 0 0 .8-.9l.4-.5a5.9 5.9 0 0 0 1-1.3l.2-.3.3-.2-.2-.3.4-.5c.8-.6 1.4-1.4 2.2-2l.3-.3a1.4 1.4 0 0 1 .5-.6l.8-.4h.4a1.4 1.4 0 0 0 .7-.6V13a3.5 3.5 0 0 1 1.3-1.4l.8-.5.2-.2.4-.4 1-.5h.2l-1.1.4-1.4 1c-.6.5-1.4.6-1.8 1.4h.3c-.7.2-1.4.5-1.7 1.2s-.8.6-1.2.9a.4.4 0 0 0-.3.4c-.8-.1-1.1.5-1.5.9v.8a3.9 3.9 0 0 0-1.6 1.4c-1.6.1-1.6 2.1-3 2.5h-.1a.2.2 0 0 0 0 .2c-.3 0-.5.2-.4.5l-.2.5c-.7.4-.6 1.1-1 1.7-.8.5-1.1 1.5-1.7 2.2l.3.5.2-.2a11.6 11.6 0 0 1 .9-1.3zM53.9 3.3l.6.2h.2a2.2 2.2 0 0 0 1.4.2 4.1 4.1 0 0 1 1.9.1h1.2a1.4 1.4 0 0 1 1.2.3.1.1 0 0 1 0 .1H60a.1.1 0 0 0 0 .1h.7a1.8 1.8 0 0 1 1.3 0c.2 0 .1.1.2.2l.5.2h-.2c-.2-.4-.5-.4-.8-.4a9.7 9.7 0 0 0-4.3-.9h-.8A9.8 9.8 0 0 0 53 3h.2zm7.3 3.1zM50.3 4.7zm10.9 1.7h.2-.2zM19 14.7zm32.1-10zm17.6 2.2a.9.9 0 0 0 1 .2h.6a3.1 3.1 0 0 0-1.8-.7l-.7-.2.5.3zm-3.4-1.3c0 .1.1.2.2.3h.2l.5-.3a4.2 4.2 0 0 0-1.7-.6l.7.4zm7.4 2.7l.8.5c-.2-.3-.4-.5-.8-.5z"
         id="path5" />
      <path
         d="M99 76.1l.6-1.6.6-1.5c.2-.5.6-1.8.8-2.6a1.7 1.7 0 0 1 .3-.7h.1v-1.1c.5-.1.4-.6.5-.9l.8-4.7a12.7 12.7 0 0 0 0-6.2 1.9 1.9 0 0 0-.5-1.6v-4.3c-.3-.9.3-1.9-.4-2.7L101 45a.4.4 0 0 0 0-.2l-.2-.6a.5.5 0 0 1 0-.4h.1c.3 0 .3-.5.3-.9a3 3 0 0 0-.4-1.1l-.3-.4a1.1 1.1 0 0 1-.2-.7 6.7 6.7 0 0 0-.2-2v-.6c-.2-.7-.4-1.5-.6-2.2l-.2-.5a2.5 2.5 0 0 1-.4-1.1 2.5 2.5 0 0 0-.3-.8l-.6-1a.8.8 0 0 0-.6-.2h-.1V32h-.2v-.8H97V31a.4.4 0 0 0 0-.1v-.2c.1-.2.1-.3-.1-.5a1.8 1.8 0 0 1-.4-.6l-.2-.6a2.9 2.9 0 0 0-.7-1.2 2.2 2.2 0 0 1-.5-.7l-.7-1.6a4.3 4.3 0 0 0-.6-1l-.6-.8a2.4 2.4 0 0 1-.4-.8l-.2-.3a.6.6 0 0 1-.1-.5.5.5 0 0 0-.2-.4l-.4-.3v.2c.1.2 0 .3-.1.3h-.2l.3 1 .3.5.7.9h-.1l-.2-.2-.2-.2a1.3 1.3 0 0 0-1.2-1.1v-.7c-.3-1.2-1.6-1.3-2.2-2.1a1.5 1.5 0 0 0-1.1-.9l-.8-.9a11.3 11.3 0 0 0-3.1-3l-.8-.6-.4-.3c-.7-.7-1-1.8-2.2-1.8l-.8-.5-.9-.7a2.2 2.2 0 0 0-1.8-1.3 5.1 5.1 0 0 0-2.3-1.2l.2.2.5.4 1.3.7a8.5 8.5 0 0 1 2.1 1.6 6.8 6.8 0 0 0 1.5 1.1l.6.5c.1.1.2.2.1.3H81l-.9-.3a5.6 5.6 0 0 1-2-.8l-1.2-.6-1.3-.7h-.2c-.3-.1-.4-.4-.8-.5l-.8-.2-2.5-.5a2.6 2.6 0 0 1-.9-.7 1.7 1.7 0 0 1-.9-.3l-1-.4a18.1 18.1 0 0 1-2.8-.8l-.6-.2-1-.3h-.5l-.2-.3v-.1h-1.6l-.6-.5-.4.2-.4.2h-.2l-.9-.5c-.6.6-1.1-.2-1.6-.1l-1-.3a1.2 1.2 0 0 1-1.2 0h-1.2a.6.6 0 0 1-.5-.6l.3-.2h.6a.7.7 0 0 1 .1.3c0 .2.2.2.5.2h.2l-.4-.6a1.1 1.1 0 0 0-1-.2l-1 .3H53c.3.2.2.3.2.5h-1.6l-.4-.2-.8-.4h-.1l-.7-.2h-2.3l.4-.2.8-.2h.3l1.7-.3 1.1-.2.6-.2h-1.1a8.4 8.4 0 0 0-3.4 0h-1.3L43 3.6c-1.4.1-2.8 0-3.9 1.2-2.5-.4-4.7.7-6.9 1.8l-2.2.9a6.7 6.7 0 0 0-3.7 1.8h.3l.5-.3.8-.5 1.3-.6 1-.2a6 6 0 0 1 2-.9l.9-.3h.2c.1.2.5 0 .7 0h.2c.1 0 .1.1 0 .1l-.6.4 1-.3.8-.2-1.3.7-1.3.4a1 1 0 0 0-.6.5l-.3.5h.3l.4-.2a1.4 1.4 0 0 1 .9-.6l1.5-.5h.5a.1.1 0 0 1 .1.2c-.2.2-.6.3-.8.5h.2l-3.2.9-3.8 1.6a5.2 5.2 0 0 1-2.3 1.2 6.6 6.6 0 0 1-1.7 1.1l-.8.2a1.5 1.5 0 0 1-1.3.9l-.3.5a3.7 3.7 0 0 1-1.2 1.1h-.1v-.1l-.2.2-.2.2-1 .2h-.5l-.4.5c-.1.1-.1.2 0 .2h.1c-.6.6-1 1.4-1.8 1.7L15 19.9c-.6 1.2-1.8 1.6-2.6 2.6s-1.4 3.9-3.9 4.3l-.2-.3-.2.5a2.7 2.7 0 0 1-.4.8 16.9 16.9 0 0 0-1.2 2.1.8.8 0 0 0-.1.5 1.4 1.4 0 0 1-.2.8l-.5 1.1h.2c.3 0 .3.3.4.6l.8-1.1a2.2 2.2 0 0 1 .6-.7 2 2 0 0 0 .9-.9l.3-.3.4-.4.6-1.1h.2c.1.1.1.1.2 0l.2-.4h.5v.8l.5-.5a.5.5 0 0 0 0-.5.4.4 0 0 1 .1-.3 1.5 1.5 0 0 0 .3-.5 1.3 1.3 0 0 1 .8-.9l.3-.2.3-.3a2.4 2.4 0 0 0 .8-1l-.2-.3c0-.1.1-.3.2-.4h.5l.6-.8.6-.3h.2a48.8 48.8 0 0 0-5.5 7.2h-.1.1a48.4 48.4 0 0 0-5.3 11.2h-.5l-.5-.4c-.2-.2-.1-.7-.4-.9h.1c.3-.5-.1-1.2.3-1.7s.1-1.4-.9-1.2-1.5.5-1.3 1.5-1 1.8-1.1 2.9-.5.5-.3.9v3.9c.1.8-.5 1.8.8 2.1l1.3.9c.1.5-.5 1.6.9 1.3a49.2 49.2 0 0 0-.3 5c0 1.1.1 2.2.1 3.3v-.4c-.1-.4-.1-.8-.2-1.3l-.3.3v-.2h-.5c0 .5-.1.8-.4.9a.9.9 0 0 0-.1.5c0 .1.1.3.2.2s.4.2.7.4-.2.3-.4.2-.2.1-.2.3v.3l.5 1.5c0 .3-.1.6-.1.9a1.7 1.7 0 0 0 .2.8h-.3v-.3l-.7-.2v-.6a1.5 1.5 0 0 0 0-.5 14.6 14.6 0 0 1-.3-1.8 16.6 16.6 0 0 1-.2-3.5.9.9 0 0 1 .1-.5v.2a2.9 2.9 0 0 1 .1.5.8.8 0 0 0 .1.4c.1.2.2.4.4.4s.1-.1.1-.2a2.1 2.1 0 0 0-.1-.5 4.2 4.2 0 0 1-.3-1.3 1.5 1.5 0 0 0-.3-.7 1.6 1.6 0 0 1-.2-.9v-.8c0-.3.1-.6.1-.9a.5.5 0 0 0-.1-.4h-.1c-.8.4-.7.2-1 1.6V55c0 .7-.1 1.4 0 2.1a10.8 10.8 0 0 0 .2 2.3 1.8 1.8 0 0 1 0 .5 3.1 3.1 0 0 0 .1.9 5.9 5.9 0 0 1 .1 1.3 3.9 3.9 0 0 0 .2 1.7 1.2 1.2 0 0 1 0 .4 2.1 2.1 0 0 0 .1.8 4.9 4.9 0 0 1 .2.9 14 14 0 0 0 .5 2.2 5 5 0 0 1 .2 1 1.7 1.7 0 0 0 .3.7 2.9 2.9 0 0 1 .5 1.2 8.5 8.5 0 0 0 .3 1l.4 1.4a5.4 5.4 0 0 0 .6 1.5 8.5 8.5 0 0 1 .8 2.1l.2.5a2.1 2.1 0 0 1 .5 1 2.1 2.1 0 0 0 .4.8 1 1 0 0 1 .2.5c.1.3.2.4.4.3h.1v.9l.5 1 .5 1 1.1 1.2.4.4c.3.3.7.5.9 1l.4.3a.7.7 0 0 1 .3.5l.2.7a3.3 3.3 0 0 0 .6.9l.4.2h.3a.2.2 0 0 1 .1.3 2.5 2.5 0 0 0 0 .5.9.9 0 0 0 .4.5h.2c.4-.1.8.2 1.2.7h.1c0-.1.1-.1 0-.2v-.2c0-.1.1-.2.2-.1a.7.7 0 0 1 .3.6v.2a4.3 4.3 0 0 0 .4 1.2c.5.3.5.3.5.1s0-.2.2-.2h.4l.2.3.8.5c.7.8 1.8.7 2.6 1.2l1.7 1.7h.2a2.9 2.9 0 0 0 1.6 1.6 1.3 1.3 0 0 0 1 .6c0 .5.6.6 1.1.7a1.2 1.2 0 0 0 .8.4h.2a1.7 1.7 0 0 0 1.5.5l.9.8 2.4.9v.2c.5 1.1 1.7.7 2.5 1l1.1.4h.4c1.2.3 2.4.9 3.7.5a.7.7 0 0 0 0 .4c1.1.7 2.4 0 3.6.4a2.9 2.9 0 0 0 1.7.1h.1l.8.2h.3l.9.2h.3a.5.5 0 0 1 .5 0 7.9 7.9 0 0 0 1.5.4h.6a.7.7 0 0 1 .7 0h3.9a5 5 0 0 0 1.6-.1h1l.5-.2H60l.6-.2.5-.3h2.2v.6H62l-1.2.2c-.4.1-.7 0-1 .1a2.4 2.4 0 0 1-1 .2l-1.3.3h-.4a3.1 3.1 0 0 0-1.5.1h-1.8a1.1 1.1 0 0 1-.9 0h-4.5a1.3 1.3 0 0 0-1.1.3H47l-.3-.2v-.3h-1.2a4.1 4.1 0 0 0-1.3-.3h-2.5l-.7-.2-.5-.2-2.1-.4h-.5l-.5-.2-2.1-.7-1.4-.4h-2.2c-.1 0-.1.1-.1.2h.2c1.3.5 2.6.9 3.9 1.5h.3l.9.2 1.4.4h1.3l.6.2.7.3 1.7.3 1.1.2 1.1.2h.8l.8.2h3.1l1 .2h2.3l1-.2H56c.4 0 .6-.1.7-.3h1a1 1 0 0 0 .8-.3c-.1.1 0 .1.1.2h.4v-.2c0-.1 0-.1.2-.2s.6-.1.7.1h.4l.3-.2c.2 0 .2 0 .2.1h.7l.5-.2.8-.4c.1.3.4.4 1.3.2l1.3-.4h1.2c.9-.1 2 0 2.7-.7h.2l.4-.3 1.1-.3a6.1 6.1 0 0 0 2-.8l.4-.2h.1l.9-.6.4-.2.5-.2h.4c.4-.1.4-.1.5-.4s0-.1-.2-.1h-.1l.4-.5h.2c.3-.1.5-.2.7-.1h.2a1.3 1.3 0 0 0 .9-.9c.3-.4 1.1-.2 1.3-.8l4.3-3.1c1.1-.1 1.4-1.1 2.2-1.7s2.3-1.1 3-2.2l.9-.4h.1a1 1 0 0 0 1.2-.7v.4c.8-.4 1.8.3 2.6-.5s0-2.7 1-3.8l.7-.5a12.1 12.1 0 0 0 1.5-4.2l.2-.2c0-.3 0-.7.4-.9a.9.9 0 0 0 .2-1.2h-.2a.3.3 0 0 0 0-.3c.7 0 .8-.7 1.2-1V77a.5.5 0 0 1 0-.2 3.8 3.8 0 0 0 .1-.7zM5.9 32.2z"
         id="path7" />
      <path
         d="M26.4 9.3l-.3.2-.4.3.5-.2zm6.1-2h.1l.3-.2h-.4zm-2.6 1l-.1.1h.1v-.1zm-1.5 1.4zm1.3-.2zm-6.3 3.1zM9.2 26.2l-.4.4H9a.4.4 0 0 0 .2-.4zm3-3.5a2.1 2.1 0 0 0 .3-.6 1.5 1.5 0 0 0-.5.5c-.1.1-.1.2 0 .2zM11 24.2V24c-.2 0-.5.3-.8.3v.2c.3.3.4.2.8-.3zm3 66.2zM73.9 9.2h.1l-.5-.3zm-2.5-1.4c.5-.1.8.4 1.2.5h.1l-.3-.2-1-.5-1.1-.5.3.2zM52.8 3.1zm11.7 2h-.1l-1.2-.2h.5zm2 .7l1.3.4a3.3 3.3 0 0 0-1.3-.4zm-9 0a1 1 0 0 0 .2-.5h-.5l-.3.3.4.3zm9 1.6zM49.9 4.2zm2.9.7zM48.5 4zm13.8 2.1a.5.5 0 0 0 0 .1zm44.8 52.3h-.3V58h.3c.1 0 .2-.3.1-.4s-.1-.7-.3-.8a.3.3 0 0 1-.2-.3l.2-.4a.4.4 0 0 0 0-.2h-.2l-.2-.3c-.1.3-.2.6-.4.7a.5.5 0 0 0 0 .2c0 .1 0 .2-.1.2h-.1a1.1 1.1 0 0 1-.1.3 2.3 2.3 0 0 0-.4.9.4.4 0 0 0 .1.4h.1a1.7 1.7 0 0 0-.1.8v.4a1.8 1.8 0 0 1-.1.5h-.1l-.4.7v.6a1.5 1.5 0 0 1-.3 1.1h-.2l-.2-.2a.9.9 0 0 1-.1-.8 6.5 6.5 0 0 0 .1-1.7c0-.1-.1-.2-.1-.2a.5.5 0 0 0-.1.3v.6c0 .2-.1.6-.3.7s-.1.2-.1.3l-.2.6.3.5c-.2.2-.4.1-.5-.1v1h.3v.4a4.2 4.2 0 0 0-.3 1.4 3.3 3.3 0 0 0 0 .4 4 4 0 0 1-.2 1.3 2 2 0 0 0 0 .6l-.3.7a3.2 3.2 0 0 1-.3.7l-.3.6-.9 2.7c.3.9-.4 1.5-.8 2.1a2.7 2.7 0 0 1-.8 2.3v.4c0 .1.1.2.3.1l.4-.3.2-.4h.2c.1.1.2.1.4-.1h.2a.5.5 0 0 1 .1.6 2.9 2.9 0 0 0-.1.8c0 .1 0 .2.1.2h.2c.1.1.2 0 .3-.3l.2-.5h.3c.4-.1.4-.1.6-.6l.5-.9.3-.6.4-1a1.6 1.6 0 0 1 .3-1 .6.6 0 0 0 .1-.6c0-.2 0-.3.2-.6l.3-.4.5-1a4.7 4.7 0 0 1 .2-.9 3 3 0 0 0 .3-1.3 3.8 3.8 0 0 1 .3-.9v-.5c-.1-.2-.1-.2 0-.6s.1-.2.2-.2a.4.4 0 0 1 .1.3l.2-.5a2.3 2.3 0 0 0 .2-.9v-.3c0-.1 0-.3-.1-.3v.4c-.2 0-.3.2-.5.3a6.4 6.4 0 0 0 .1-.8l.4-.2a.7.7 0 0 0 .2-.6 1.4 1.4 0 0 1 0-.3 4.8 4.8 0 0 0 .2-1.4v-.2l.3-1h.1a.3.3 0 0 0 .1-.3h-.1a.9.9 0 0 1 .2-.8 1.5 1.5 0 0 0-.9-1zm-1.2 7.8zm-.2-9.9zm0 0zM9.1 30.8a.3.3 0 0 0 0-.2l-.2-.2-.2.2-.3.6c0 .3-.3.6-.3.9v.2h.1zm96.3 24.8h.1a1.7 1.7 0 0 0 .2-1.2.5.5 0 0 1 .2-.5h.1v-.2l-.2-.2h-.1c-.1.1-.2.3-.3.3s-.1.1-.1.3v.3a2.2 2.2 0 0 0 .1 1.2zM13.2 90.1c-.1 0 0 .2 0 .3l.8.8h.1c-.2-.3-.3-.6-.2-.7a.9.9 0 0 1-.5-.2zm.8.3zm92.3-35.7h.1a2 2 0 0 0 0-.6c-.3.1-.3.1-.3.6s.1.1.2 0z"
         id="path9" />
      <path
         d="M106.7 62a.6.6 0 0 0 .1-.5c0-.1-.1-.2-.1-.1h-.2v.2c0 .4.1.5.2.4zm.1-8.2h-.1v.6a1 1 0 0 0 .1-.6zM17.1 92.6h-.2v.2l.2.2h.2v-.2zm86.6-33.3c0-.1 0-.1-.1-.1zM9.9 86.5l.5.5-.4-.6z"
         id="path11" />
      <circle
         cx="10.5"
         cy="87.1"
         transform="rotate(-24.8 10.4 87.159)"
         id="circle13" />
      <path
         d="M9.7 30.1h-.1v.2-.2h.1zm83.2-6.6l-.2-.3h-.1zm-14.7 77.1zM5.9 32.2zm-.1.2a.3.3 0 0 0 .1-.2v.2zm1.9-4.9zM61.5 2.4zm42.8 58.2v.1-.1zM16.4 92.5h-.1c.1.1.2 0 .1-.1zm.2.7h.1l-.1-.1v.1zm73.9-71.3zm15.2 34.4zM14.6 91.7zm92.1-37zm-.8 11.4zM34.6 0z"
         id="path15" />
    </g>
  </g>
  <g
     id="SvgjsG2686"
     featurekey="nameFeature-0"
     transform="matrix(2.284354285447385,0,0,2.284354285447385,27.980055421585643,-5.609520280720151)"
     fill="#ffffff">
    <path
       d="M9.6 16.48 l-0.32 4.24 c-0.08 1.8 2.6 1.96 2.72 0.2 l0.24 -4.28 c0.12 -1.76 -2.56 -1.96 -2.64 -0.16 z M0.48 11 l0 0 c0.04 0 20.48 -0.32 20.56 -0.2 c1.28 1.12 0.96 27.8 0.12 28.56 c-0.4 0.32 -4.64 0.56 -9.2 0.6 c-0.84 -3.84 -0.2 -8.32 -0.2 -8.32 c0.24 -1.8 -2.44 -2.12 -2.64 -0.4 c0 0.04 -0.64 4.52 0.16 8.76 c-4.56 -0.04 -8.68 -0.24 -8.92 -0.64 c-0.8 -1.44 0 -28.28 0.12 -28.36 z"
       id="path20" />
  </g>
</svg> -->



<svg version="1.1" id="Layer_1" xmlns="http://www.w3.org/2000/svg" xmlns:xlink="http://www.w3.org/1999/xlink" x="0px" y="0px"
	 width="100%" viewBox="0 0 500 500" enable-background="new 0 0 500 500" xml:space="preserve">
<path fill="transparent" opacity="1.000000" stroke="none" 
	d="
M267.000000,501.000000 
	C178.000015,501.000000 89.500046,501.000000 1.000047,501.000000 
	C1.000032,334.333405 1.000032,167.666794 1.000016,1.000137 
	C167.666565,1.000091 334.333130,1.000091 500.999756,1.000046 
	C500.999847,167.666519 500.999847,334.333038 500.999939,500.999786 
	C423.166656,501.000000 345.333344,501.000000 267.000000,501.000000 
M105.004875,118.993690 
	C105.004875,118.993690 104.973534,118.952614 104.428841,119.238770 
	C104.256660,119.822456 104.084480,120.406143 103.378067,121.173866 
	C102.918449,121.751869 102.458832,122.329872 101.420708,123.170738 
	C100.577744,124.094330 99.734787,125.017921 98.292290,126.214821 
	C96.866386,128.128418 95.440483,130.042007 93.485023,132.300110 
	C93.025848,133.924393 92.566666,135.548660 92.156082,137.225174 
	C92.156082,137.225174 92.088547,137.195572 91.407906,137.238419 
	C91.634430,138.258255 91.860947,139.278107 91.738701,140.855362 
	C84.851799,147.569016 80.264908,155.709763 77.229904,164.736588 
	C76.752525,166.156433 77.310188,167.924255 77.454025,170.846939 
	C83.872902,163.838486 89.065483,158.168976 94.258057,152.499466 
	C94.660492,152.714920 95.062927,152.930389 95.465363,153.145844 
	C95.356117,154.254990 95.548599,155.510513 95.092163,156.451202 
	C88.710678,169.603394 82.295296,182.740219 75.709381,195.790543 
	C75.032448,197.131912 73.207397,197.893845 71.915092,198.924652 
	C71.270393,197.569336 70.336319,196.269485 70.062805,194.843002 
	C69.792076,193.431076 69.613358,191.334137 70.404976,190.517853 
	C72.353279,188.508942 72.655022,186.056671 70.289925,185.599030 
	C67.972466,185.150589 63.957508,186.231995 62.913567,187.975098 
	C60.836113,191.443878 59.798515,195.758789 59.221752,199.849655 
	C58.395885,205.707428 58.892830,211.772781 57.842510,217.571548 
	C56.903690,222.754730 58.945171,225.149399 62.760387,228.191696 
	C65.617706,230.470154 68.576057,234.073257 68.127747,238.806839 
	C67.615669,244.213593 67.461021,249.654831 66.914490,255.057159 
	C66.806725,256.122467 65.713921,257.157440 64.919334,258.070618 
	C62.755703,260.557251 59.763397,262.950531 64.895027,265.394623 
	C62.908546,267.754608 62.908546,267.754608 64.918655,273.745361 
	C64.300179,275.146118 63.681702,276.546844 62.277260,277.658203 
	C61.853439,272.752075 61.429619,267.845978 61.124527,262.253357 
	C61.346691,260.932556 61.568851,259.611725 62.361092,258.698822 
	C62.565716,257.950012 63.067158,257.140594 62.928535,256.461914 
	C61.695347,250.424149 60.348991,244.409515 58.687847,236.791382 
	C57.564228,239.429626 56.203186,241.158936 56.177586,242.907761 
	C55.849518,265.317566 55.832302,287.670410 64.895370,308.901215 
	C68.688347,317.786469 71.349152,327.155914 75.160324,336.032318 
	C78.988876,344.949097 82.457794,354.255554 90.903397,360.299408 
	C91.963470,361.058075 92.425385,362.684509 93.101105,363.942902 
	C96.441589,370.163910 100.005722,376.128693 107.504852,377.259705 
	C108.353218,379.599365 109.109467,381.684967 109.648621,383.171906 
	C111.696808,383.388031 113.209084,383.178925 114.336708,383.741180 
	C116.900978,385.019867 119.342422,386.580841 121.712982,388.203552 
	C125.295090,390.655640 129.266754,392.795105 132.186325,395.900848 
	C137.055908,401.080994 142.426819,405.182220 149.013702,407.876068 
	C153.745651,409.811279 158.280594,412.226471 162.913132,414.406952 
	C167.506378,416.568939 172.108139,418.712952 176.715637,420.844360 
	C177.455978,421.186798 178.245743,421.422363 179.012650,421.707336 
	C178.982559,422.035553 178.952454,422.363739 178.922363,422.691925 
	C176.686081,422.878693 174.449814,423.065430 172.213531,423.252197 
	C172.128418,423.720978 172.043304,424.189758 171.958191,424.658539 
	C178.225906,426.535065 184.399734,428.860840 190.780914,430.194489 
	C203.997879,432.956818 217.021973,437.308044 230.846786,435.999268 
	C231.802017,435.908844 232.799423,436.357269 233.770737,436.329468 
	C244.263916,436.028931 254.779907,436.008392 265.239441,435.233459 
	C272.022675,434.730957 278.710876,433.028198 285.464172,432.012939 
	C291.471802,431.109833 297.965271,431.558929 303.440460,429.385834 
	C314.784424,424.883484 326.071686,419.825287 336.493134,413.524994 
	C347.484894,406.879852 357.349518,398.391846 367.885773,390.963135 
	C373.610107,386.927063 378.695923,381.641052 386.056213,380.413300 
	C389.554810,379.829681 393.083862,379.428589 397.297424,378.848663 
	C395.950439,371.716827 397.235199,365.730957 402.757263,361.178986 
	C403.521393,360.549103 403.681732,359.134308 404.022278,358.051605 
	C406.068542,351.546234 406.914062,344.271881 410.486694,338.762787 
	C413.300964,334.423157 413.566406,330.452850 414.184082,325.967224 
	C414.574188,323.134338 415.937012,320.400055 417.076172,317.711670 
	C422.216370,305.581238 425.449585,292.956299 427.308441,279.905823 
	C427.308441,279.905823 427.477356,279.583099 428.116638,279.141174 
	C428.344818,279.018555 428.573029,278.895935 429.134705,279.527374 
	C428.325989,286.006805 427.877563,292.559601 426.578796,298.939240 
	C425.746490,303.027496 423.559235,306.825073 422.160553,310.816437 
	C420.307678,316.103912 418.625336,321.451263 416.887787,326.778778 
	C416.667084,327.455475 416.555511,328.167755 416.393402,328.863556 
	C417.219391,328.917419 418.053528,329.068359 418.869263,328.999939 
	C419.827820,328.919464 420.770386,328.648560 421.718872,328.473785 
	C421.973480,329.980103 422.228088,331.486420 422.520782,333.218079 
	C424.906372,331.318146 427.726868,330.161926 428.655396,328.137787 
	C432.105072,320.617676 435.660339,313.010345 437.823944,305.067474 
	C441.139862,292.894226 443.352295,280.419403 445.980042,268.061310 
	C446.208069,266.988831 446.382874,265.695343 445.998413,264.739380 
	C444.500549,261.014954 442.767273,257.385193 441.121582,253.720230 
	C440.722961,253.569153 440.324341,253.418076 439.925720,253.266998 
	C438.948578,256.516052 437.786224,259.723358 437.042328,263.024963 
	C436.158081,266.949402 435.633423,270.954895 434.827301,275.658478 
	C433.002106,274.075165 431.813416,273.043976 430.690399,272.069794 
	C430.036133,274.007782 429.487518,275.632812 428.313934,276.757111 
	C428.535278,272.496246 429.221619,268.198029 428.882935,263.982147 
	C428.134766,254.668915 426.915955,245.391647 425.793884,236.111221 
	C425.364319,232.558273 424.723572,229.028046 424.092987,225.502869 
	C423.016815,219.487137 419.884979,213.742279 421.925323,207.309113 
	C422.231201,206.344604 421.662598,205.070755 421.399841,203.963440 
	C420.284973,199.266006 419.339386,194.515182 417.948486,189.899429 
	C415.562286,181.980255 415.626160,172.938126 407.958069,167.312576 
	C407.411682,166.911758 407.310150,165.900864 407.008484,165.170868 
	C404.990295,160.287018 403.242462,155.268555 400.890106,150.551468 
	C397.840942,144.437134 394.305115,138.565781 390.992432,132.582260 
	C390.398407,131.509308 389.870453,130.399780 389.311981,129.307129 
	C388.260834,130.258240 387.209686,131.209351 386.803558,131.576813 
	C385.026031,129.828888 383.170593,127.917549 381.221039,126.107613 
	C378.274048,123.371666 375.191589,120.779053 372.293365,117.993729 
	C368.137360,113.999634 364.138184,109.842430 359.986084,105.844177 
	C358.024994,103.955765 355.744476,102.394196 353.824463,100.469330 
	C351.482880,98.121887 349.582306,94.907928 345.779877,98.552429 
	C345.299774,99.012581 343.792664,98.899742 343.046692,98.508453 
	C333.467438,93.483810 323.266785,90.125633 313.173828,86.329269 
	C299.014557,81.003372 284.885193,76.240669 269.908691,74.060501 
	C267.073639,73.647789 264.034943,71.809105 261.556885,72.445518 
	C258.028961,73.351555 255.923462,72.412743 253.681976,69.406792 
	C252.835922,69.325546 251.989883,69.244293 250.311920,69.028206 
	C241.641800,70.827522 240.789276,70.749512 231.164932,67.337349 
	C234.087463,66.821449 237.232224,66.266319 240.376999,65.711182 
	C239.301193,64.475746 238.256241,64.082077 237.194382,64.029350 
	C219.569122,63.154232 202.131119,64.587479 185.092026,69.219330 
	C180.830246,70.377846 176.997604,73.114983 172.992325,75.793793 
	C172.717224,77.230957 172.442123,78.668114 172.037170,80.925491 
	C170.702835,81.985657 169.509796,83.339729 168.011963,84.059853 
	C155.122757,90.256622 141.601654,95.261940 130.909180,105.393768 
	C128.842438,107.352150 125.468292,107.930763 122.092148,108.991409 
	C121.455894,108.998466 120.819649,109.005524 120.250343,108.072693 
	C120.232338,107.759109 120.214333,107.445534 119.761421,107.029228 
	C118.821548,107.478729 117.881683,107.928223 116.889328,108.380775 
	C116.889328,108.380775 116.875626,108.431541 116.184654,108.415802 
	C115.742996,108.936737 115.301331,109.457680 114.288605,110.349045 
	C114.517700,111.853142 114.746796,113.357239 114.286354,114.899651 
	C111.509575,112.930367 110.268478,115.029198 108.398727,117.115952 
	C107.944145,117.472366 107.489563,117.828773 106.399490,118.062881 
	C105.918533,118.367149 105.437569,118.671417 105.004875,118.993690 
z"/>
<path fill="#FE4B40" opacity="1.000000" stroke="none" 
	d="
M172.967728,75.126579 
	C176.997604,73.114983 180.830246,70.377846 185.092026,69.219330 
	C202.131119,64.587479 219.569122,63.154232 237.194382,64.029350 
	C238.256241,64.082077 239.301193,64.475746 240.376999,65.711182 
	C237.232224,66.266319 234.087463,66.821449 231.164932,67.337349 
	C240.789276,70.749512 241.641800,70.827522 250.663284,69.333366 
	C251.954025,69.774834 252.893387,69.911148 253.832764,70.047462 
	C255.923462,72.412743 258.028961,73.351555 261.556885,72.445518 
	C264.034943,71.809105 267.073639,73.647789 269.908691,74.060501 
	C284.885193,76.240669 299.014557,81.003372 313.173828,86.329269 
	C323.266785,90.125633 333.467438,93.483810 343.046692,98.508453 
	C343.792664,98.899742 345.299774,99.012581 345.779877,98.552429 
	C349.582306,94.907928 351.482880,98.121887 353.824463,100.469330 
	C355.744476,102.394196 358.024994,103.955765 359.986084,105.844177 
	C364.138184,109.842430 368.137360,113.999634 372.293365,117.993729 
	C375.191589,120.779053 378.274048,123.371666 381.221039,126.107613 
	C383.170593,127.917549 385.026031,129.828888 386.803558,131.576813 
	C387.209686,131.209351 388.260834,130.258240 389.311981,129.307129 
	C389.870453,130.399780 390.398407,131.509308 390.992432,132.582260 
	C394.305115,138.565781 397.840942,144.437134 400.890106,150.551468 
	C403.242462,155.268555 404.990295,160.287018 407.008484,165.170868 
	C407.310150,165.900864 407.411682,166.911758 407.958069,167.312576 
	C415.626160,172.938126 415.562286,181.980255 417.948486,189.899429 
	C419.339386,194.515182 420.284973,199.266006 421.399841,203.963440 
	C421.662598,205.070755 422.231201,206.344604 421.925323,207.309113 
	C419.884979,213.742279 423.016815,219.487137 424.092987,225.502869 
	C424.723572,229.028046 425.364319,232.558273 425.793884,236.111221 
	C426.915955,245.391647 428.134766,254.668915 428.882935,263.982147 
	C429.221619,268.198029 428.535278,272.496246 428.612305,277.260986 
	C428.874146,278.100983 428.837677,278.437134 428.801208,278.773285 
	C428.573029,278.895935 428.344818,279.018555 427.708771,279.357544 
	C427.300903,279.573944 427.094574,279.905151 427.094574,279.905151 
	C425.449585,292.956299 422.216370,305.581238 417.076172,317.711670 
	C415.937012,320.400055 414.574188,323.134338 414.184082,325.967224 
	C413.566406,330.452850 413.300964,334.423157 410.486694,338.762787 
	C406.914062,344.271881 406.068542,351.546234 404.022278,358.051605 
	C403.681732,359.134308 403.521393,360.549103 402.757263,361.178986 
	C397.235199,365.730957 395.950439,371.716827 397.297424,378.848663 
	C393.083862,379.428589 389.554810,379.829681 386.056213,380.413300 
	C378.695923,381.641052 373.610107,386.927063 367.885773,390.963135 
	C357.349518,398.391846 347.484894,406.879852 336.493134,413.524994 
	C326.071686,419.825287 314.784424,424.883484 303.440460,429.385834 
	C297.965271,431.558929 291.471802,431.109833 285.464172,432.012939 
	C278.710876,433.028198 272.022675,434.730957 265.239441,435.233459 
	C254.779907,436.008392 244.263916,436.028931 233.770737,436.329468 
	C232.799423,436.357269 231.802017,435.908844 230.846786,435.999268 
	C217.021973,437.308044 203.997879,432.956818 190.780914,430.194489 
	C184.399734,428.860840 178.225906,426.535065 171.958191,424.658539 
	C172.043304,424.189758 172.128418,423.720978 172.213531,423.252197 
	C174.449814,423.065430 176.686081,422.878693 178.922363,422.691925 
	C178.952454,422.363739 178.982559,422.035553 179.012650,421.707336 
	C178.245743,421.422363 177.455978,421.186798 176.715637,420.844360 
	C172.108139,418.712952 167.506378,416.568939 162.913132,414.406952 
	C158.280594,412.226471 153.745651,409.811279 149.013702,407.876068 
	C142.426819,405.182220 137.055908,401.080994 132.186325,395.900848 
	C129.266754,392.795105 125.295090,390.655640 121.712982,388.203552 
	C119.342422,386.580841 116.900978,385.019867 114.336708,383.741180 
	C113.209084,383.178925 111.696808,383.388031 109.648621,383.171906 
	C109.109467,381.684967 108.353218,379.599365 107.504852,377.259705 
	C100.005722,376.128693 96.441589,370.163910 93.101105,363.942902 
	C92.425385,362.684509 91.963470,361.058075 90.903397,360.299408 
	C82.457794,354.255554 78.988876,344.949097 75.160324,336.032318 
	C71.349152,327.155914 68.688347,317.786469 64.895370,308.901215 
	C55.832302,287.670410 55.849518,265.317566 56.177586,242.907761 
	C56.203186,241.158936 57.564228,239.429626 58.687847,236.791382 
	C60.348991,244.409515 61.695347,250.424149 62.928535,256.461914 
	C63.067158,257.140594 62.565716,257.950012 62.068928,258.267517 
	C61.555470,257.624817 61.320282,257.425659 61.119164,257.196564 
	C61.028435,257.093231 61.005585,256.930328 60.951942,256.794434 
	C60.845829,257.254974 60.631977,257.720520 60.653076,258.175140 
	C60.726860,259.765411 60.881733,261.351929 61.005802,262.939850 
	C61.429619,267.845978 61.853439,272.752075 62.866661,277.937195 
	C65.555313,277.773468 65.639709,277.505798 65.086777,273.043854 
	C62.908546,267.754608 62.908546,267.754608 64.895027,265.394623 
	C59.763397,262.950531 62.755703,260.557251 64.919334,258.070618 
	C65.713921,257.157440 66.806725,256.122467 66.914490,255.057159 
	C67.461021,249.654831 67.615669,244.213593 68.127747,238.806839 
	C68.576057,234.073257 65.617706,230.470154 62.760387,228.191696 
	C58.945171,225.149399 56.903690,222.754730 57.842510,217.571548 
	C58.892830,211.772781 58.395885,205.707428 59.221752,199.849655 
	C59.798515,195.758789 60.836113,191.443878 62.913567,187.975098 
	C63.957508,186.231995 67.972466,185.150589 70.289925,185.599030 
	C72.655022,186.056671 72.353279,188.508942 70.404976,190.517853 
	C69.613358,191.334137 69.792076,193.431076 70.062805,194.843002 
	C70.336319,196.269485 71.270393,197.569336 71.915092,198.924652 
	C73.207397,197.893845 75.032448,197.131912 75.709381,195.790543 
	C82.295296,182.740219 88.710678,169.603394 95.092163,156.451202 
	C95.548599,155.510513 95.356117,154.254990 95.465363,153.145844 
	C95.062927,152.930389 94.660492,152.714920 94.258057,152.499466 
	C89.065483,158.168976 83.872902,163.838486 77.454025,170.846939 
	C77.310188,167.924255 76.752525,166.156433 77.229904,164.736588 
	C80.264908,155.709763 84.851799,147.569016 92.366371,140.829056 
	C93.317665,140.925400 93.641289,141.048050 94.198334,141.165375 
	C97.890305,141.145493 96.323166,138.764175 96.612114,137.062439 
	C98.296036,135.230560 99.699837,133.461273 101.103638,131.692001 
	C100.564156,131.282776 100.024681,130.873566 99.485199,130.464355 
	C98.315071,131.893082 97.144943,133.321808 95.699127,134.785187 
	C95.241257,134.853455 95.059090,134.887054 94.716133,134.654816 
	C94.375084,133.577866 94.194832,132.766724 94.014587,131.955597 
	C95.440483,130.042007 96.866386,128.128418 98.927330,126.015839 
	C100.374649,124.847198 101.186935,123.877541 101.999214,122.907875 
	C102.458832,122.329872 102.918449,121.751869 103.872482,120.888977 
	C104.569115,120.053604 104.771324,119.503113 104.973541,118.952614 
	C104.973534,118.952614 105.004875,118.993690 105.258072,118.935379 
	C106.019165,118.646446 106.527077,118.415817 107.034973,118.185181 
	C107.489563,117.828773 107.944145,117.472366 108.860641,117.196945 
	C112.193642,119.444885 109.514236,120.621338 108.390167,121.904144 
	C106.389183,124.187668 104.214340,126.318840 101.578857,129.070633 
	C106.994141,128.776810 114.608315,120.679207 116.108337,114.524757 
	C116.190308,113.438126 116.115654,112.723724 115.999390,112.006317 
	C115.957764,112.003311 115.952499,112.086609 115.919113,112.179176 
	C115.885719,112.271744 115.997505,112.499130 116.212952,112.774445 
	C118.820312,114.256729 120.449303,113.701035 121.351913,110.860695 
	C121.933624,110.192711 122.315430,109.669281 122.697235,109.145859 
	C125.468292,107.930763 128.842438,107.352150 130.909180,105.393768 
	C141.601654,95.261940 155.122757,90.256622 168.011963,84.059853 
	C169.509796,83.339729 170.702835,81.985657 172.542175,80.255890 
	C173.621414,79.725388 174.195633,79.864479 174.685852,80.204750 
	C174.565628,80.562492 174.529419,80.719063 174.493195,80.875633 
	C174.622375,80.594704 174.751556,80.313766 174.794632,79.681992 
	C175.138290,79.369476 175.568024,79.407806 176.079117,79.658646 
	C176.643539,79.992783 177.126633,80.114426 177.609711,80.236053 
	C177.418961,79.781265 177.228195,79.326469 177.027328,78.685333 
	C177.017227,78.498993 177.031555,78.126030 177.259094,78.030586 
	C177.798370,77.820267 178.120285,77.757927 178.740128,77.689743 
	C179.347031,77.409790 179.666168,77.188225 179.923523,76.649857 
	C179.246567,76.159813 178.631424,75.986580 177.841919,75.486595 
	C176.468628,75.135109 175.269714,75.110359 173.793076,75.043457 
	C173.332825,75.043060 173.150269,75.084824 172.967728,75.126579 
M259.200928,428.902100 
	C248.763672,428.948822 238.326401,428.995544 227.018341,428.986847 
	C220.557480,428.253815 214.073029,427.681274 207.643387,426.735840 
	C202.702301,426.009277 197.849716,424.697479 192.920303,423.868713 
	C189.902832,423.361420 186.814590,423.275085 183.758133,422.999695 
	C183.724457,423.518707 183.690781,424.037720 183.657120,424.556732 
	C212.075546,432.935242 241.035187,433.397888 270.204041,430.800415 
	C270.240814,430.201233 270.277618,429.602081 270.314392,429.002899 
	C266.928375,429.002899 263.542358,429.002899 259.200928,428.902100 
M332.515808,144.109818 
	C327.598267,137.078049 323.516876,129.225739 317.589172,123.185226 
	C305.237701,110.598717 289.163391,105.976349 271.895599,104.800674 
	C246.979721,103.104271 224.420807,109.647400 204.249619,124.198326 
	C172.527924,147.081482 156.605438,179.743729 147.784409,216.639603 
	C141.459091,243.096695 140.757111,270.037628 141.016861,297.082031 
	C141.219467,318.177551 144.557892,338.470490 154.374496,357.389099 
	C163.041092,374.091431 175.945816,385.942444 194.049301,391.622162 
	C212.686783,397.469391 231.746658,398.153900 250.880798,394.924744 
	C276.523254,390.597260 297.955841,378.842010 313.198486,357.301117 
	C322.915741,343.568726 329.436401,328.144928 332.698120,311.763763 
	C335.213104,299.132660 336.876099,286.070557 336.708710,273.228882 
	C336.468048,254.761459 326.747375,242.460556 310.043274,238.656601 
	C301.797424,236.778793 292.849335,237.052948 284.306976,237.638016 
	C272.866333,238.421570 261.519073,240.516708 250.115707,241.918289 
	C244.171219,242.648941 241.896927,244.773987 241.051682,250.590530 
	C238.610947,267.386322 236.169540,284.182648 233.581192,300.956055 
	C232.054825,310.847534 235.872314,314.774933 245.789185,313.135803 
	C250.423218,312.369873 255.053116,311.578888 259.684906,310.799225 
	C260.074768,311.320404 260.464630,311.841583 260.854523,312.362732 
	C257.036804,317.255615 253.681213,322.618561 249.293671,326.931793 
	C242.627975,333.484619 234.544876,336.332367 225.069931,333.188141 
	C215.441849,329.993042 211.979385,322.292755 211.021652,313.307648 
	C206.985977,275.445374 208.926743,238.117172 222.837357,202.188889 
	C227.814713,189.333405 234.973083,177.760757 247.172791,170.296021 
	C254.586685,165.759613 262.933502,169.028473 265.390045,177.418564 
	C266.124817,179.928146 266.460571,182.699036 266.285614,185.303635 
	C265.739868,193.428635 265.003906,201.547714 264.069305,209.637619 
	C263.289856,216.384613 265.800354,221.157181 271.184021,221.044342 
	C290.004089,220.649841 308.819794,219.984421 327.630524,219.251694 
	C332.019348,219.080734 334.540344,216.418625 335.087341,211.955124 
	C335.532959,208.319122 336.179321,204.707733 336.623810,201.071609 
	C338.945282,182.080109 339.452972,163.204422 332.515808,144.109818 
z"/>
<path fill="#F74E40" opacity="1.000000" stroke="none" 
	d="
M428.967957,279.150330 
	C428.837677,278.437134 428.874146,278.100983 428.924774,277.511322 
	C429.487518,275.632812 430.036133,274.007782 430.690399,272.069794 
	C431.813416,273.043976 433.002106,274.075165 434.827301,275.658478 
	C435.633423,270.954895 436.158081,266.949402 437.042328,263.024963 
	C437.786224,259.723358 438.948578,256.516052 439.925720,253.266998 
	C440.324341,253.418076 440.722961,253.569153 441.121582,253.720230 
	C442.767273,257.385193 444.500549,261.014954 445.998413,264.739380 
	C446.382874,265.695343 446.208069,266.988831 445.980042,268.061310 
	C443.352295,280.419403 441.139862,292.894226 437.823944,305.067474 
	C435.660339,313.010345 432.105072,320.617676 428.655396,328.137787 
	C427.726868,330.161926 424.906372,331.318146 422.520782,333.218079 
	C422.228088,331.486420 421.973480,329.980103 421.719391,328.466980 
	C420.770386,328.648560 419.827820,328.919464 418.869263,328.999939 
	C418.053528,329.068359 417.219391,328.917419 416.393402,328.863556 
	C416.555511,328.167755 416.667084,327.455475 416.887787,326.778778 
	C418.625336,321.451263 420.307678,316.103912 422.160553,310.816437 
	C423.559235,306.825073 425.746490,303.027496 426.578796,298.939240 
	C427.877563,292.559601 428.325989,286.006805 428.967957,279.150330 
z"/>
<path fill="#E65643" opacity="1.000000" stroke="none" 
	d="
M115.951721,114.896980 
	C114.608315,120.679207 106.994141,128.776810 101.578857,129.070633 
	C104.214340,126.318840 106.389183,124.187668 108.390167,121.904144 
	C109.514236,120.621338 112.193642,119.444885 109.134796,117.096573 
	C110.268478,115.029198 111.509575,112.930367 114.873520,114.932106 
	C115.460686,114.964561 115.951721,114.896980 115.951721,114.896980 
z"/>
<path fill="#1EB25F" opacity="1.000000" stroke="none" 
	d="
M175.997772,79.446136 
	C175.568024,79.407806 175.138290,79.369476 174.760223,79.697891 
	C174.811920,80.064636 174.769852,80.003571 174.769852,80.003571 
	C174.195633,79.864479 173.621414,79.725388 172.607101,79.845787 
	C172.442123,78.668114 172.717224,77.230957 172.980026,75.460190 
	C173.150269,75.084824 173.332825,75.043060 173.877747,75.335258 
	C175.498825,75.717255 176.757553,75.765297 178.016266,75.813339 
	C178.631424,75.986580 179.246567,76.159813 179.626144,76.690781 
	C179.077835,77.281708 178.765106,77.514908 178.452377,77.748108 
	C178.120285,77.757927 177.798370,77.820267 176.874588,78.081474 
	C176.150986,78.665787 176.039429,79.103775 175.969482,79.535492 
	C176.011108,79.529236 175.997772,79.446136 175.997772,79.446136 
z"/>
<path fill="#E65643" opacity="1.000000" stroke="none" 
	d="
M93.749802,132.127853 
	C94.194832,132.766724 94.375084,133.577866 94.677155,134.996628 
	C94.475716,136.438187 94.152458,137.272125 93.394173,137.881256 
	C92.675262,137.495285 92.391373,137.334106 92.107491,137.172943 
	C92.566666,135.548660 93.025848,133.924393 93.749802,132.127853 
z"/>
<path fill="#0B130B" opacity="1.000000" stroke="none" 
	d="
M61.065163,262.596619 
	C60.881733,261.351929 60.726860,259.765411 60.653076,258.175140 
	C60.631977,257.720520 60.845829,257.254974 60.951942,256.794434 
	C61.005585,256.930328 61.028435,257.093231 61.119164,257.196564 
	C61.320282,257.425659 61.555470,257.624817 61.783890,258.063538 
	C61.568851,259.611725 61.346691,260.932556 61.065163,262.596619 
z"/>
<path fill="#0B130B" opacity="1.000000" stroke="none" 
	d="
M65.002716,273.394592 
	C65.639709,277.505798 65.555313,277.773468 63.259644,278.081909 
	C63.681702,276.546844 64.300179,275.146118 65.002716,273.394592 
z"/>
<path fill="#3FA35B" opacity="1.000000" stroke="none" 
	d="
M120.196335,107.131966 
	C120.214333,107.445534 120.232338,107.759109 120.034058,108.794128 
	C119.540466,110.019196 119.263168,110.522835 119.002640,111.019806 
	C119.019409,111.013145 119.028839,110.977943 118.499084,110.947769 
	C117.293152,111.123779 116.616982,111.329964 116.345978,111.080124 
	C116.792648,109.893250 116.834137,109.162392 116.875626,108.431541 
	C116.875626,108.431541 116.889328,108.380775 117.339127,108.688538 
	C118.591400,108.374863 119.393867,107.753418 120.196335,107.131966 
z"/>
<path fill="#708B53" opacity="1.000000" stroke="none" 
	d="
M253.757370,69.727127 
	C252.893387,69.911148 251.954025,69.774834 251.079239,69.400787 
	C251.989883,69.244293 252.835922,69.325546 253.757370,69.727127 
z"/>
<path fill="#33A85C" opacity="1.000000" stroke="none" 
	d="
M116.108337,114.524757 
	C115.951721,114.896980 115.460686,114.964561 115.218292,114.912949 
	C114.746796,113.357239 114.517700,111.853142 114.631836,110.478119 
	C115.330383,111.074570 115.685692,111.541939 116.041008,112.009315 
	C116.115654,112.723724 116.190308,113.438126 116.108337,114.524757 
z"/>
<path fill="#A6744C" opacity="1.000000" stroke="none" 
	d="
M118.985870,111.026474 
	C119.263168,110.522835 119.540466,110.019196 120.000580,109.264069 
	C120.819649,109.005524 121.455894,108.998466 122.394691,109.068634 
	C122.315430,109.669281 121.933624,110.192711 120.992142,110.810242 
	C119.950256,110.945061 119.468063,110.985764 118.985870,111.026474 
z"/>
<path fill="#E65643" opacity="1.000000" stroke="none" 
	d="
M101.709961,123.039307 
	C101.186935,123.877541 100.374649,124.847198 99.227097,125.879196 
	C99.734787,125.017921 100.577744,124.094330 101.709961,123.039307 
z"/>
<path fill="#DB5B44" opacity="1.000000" stroke="none" 
	d="
M115.999390,112.006317 
	C115.685692,111.541939 115.330383,111.074570 114.917374,110.292908 
	C115.301331,109.457680 115.742996,108.936737 116.530136,108.423676 
	C116.834137,109.162392 116.792648,109.893250 116.299797,111.167786 
	C115.848442,111.711464 115.952499,112.086609 115.952499,112.086609 
	C115.952499,112.086609 115.957764,112.003311 115.999390,112.006317 
z"/>
<path fill="#818551" opacity="1.000000" stroke="none" 
	d="
M93.964905,141.170700 
	C93.641289,141.048050 93.317665,140.925400 92.540756,140.550354 
	C91.860947,139.278107 91.634430,138.258255 91.845261,137.569580 
	C92.541977,138.289963 92.801338,138.679184 93.288109,139.593414 
	C93.665306,140.469177 93.815102,140.819931 93.964905,141.170700 
z"/>
<path fill="#DB5B44" opacity="1.000000" stroke="none" 
	d="
M119.978882,107.080597 
	C119.393867,107.753418 118.591400,108.374863 117.365372,108.687012 
	C117.881683,107.928223 118.821548,107.478729 119.978882,107.080597 
z"/>
<path fill="#E65643" opacity="1.000000" stroke="none" 
	d="
M104.701187,119.095688 
	C104.771324,119.503113 104.569115,120.053604 104.139603,120.796967 
	C104.084480,120.406143 104.256660,119.822456 104.701187,119.095688 
z"/>
<path fill="#E65643" opacity="1.000000" stroke="none" 
	d="
M106.717239,118.124039 
	C106.527077,118.415817 106.019165,118.646446 105.233932,118.926376 
	C105.437569,118.671417 105.918533,118.367149 106.717239,118.124039 
z"/>
<path fill="#3BA55C" opacity="1.000000" stroke="none" 
	d="
M93.060707,139.068420 
	C92.801338,138.679184 92.541977,138.289963 92.185577,137.548157 
	C92.088547,137.195572 92.156082,137.225174 92.131790,137.199066 
	C92.391373,137.334106 92.675262,137.495285 93.351463,138.094604 
	C93.542244,138.744644 93.314552,138.923203 93.060707,139.068420 
z"/>
<path fill="#F74E40" opacity="1.000000" stroke="none" 
	d="
M427.201508,279.905487 
	C427.094574,279.905151 427.300903,279.573944 427.389130,279.578522 
	C427.477356,279.583099 427.308441,279.905823 427.201508,279.905487 
z"/>
<path fill="#FFFEFE" opacity="1.000000" stroke="none" 
	d="
M332.672852,144.461594 
	C339.452972,163.204422 338.945282,182.080109 336.623810,201.071609 
	C336.179321,204.707733 335.532959,208.319122 335.087341,211.955124 
	C334.540344,216.418625 332.019348,219.080734 327.630524,219.251694 
	C308.819794,219.984421 290.004089,220.649841 271.184021,221.044342 
	C265.800354,221.157181 263.289856,216.384613 264.069305,209.637619 
	C265.003906,201.547714 265.739868,193.428635 266.285614,185.303635 
	C266.460571,182.699036 266.124817,179.928146 265.390045,177.418564 
	C262.933502,169.028473 254.586685,165.759613 247.172791,170.296021 
	C234.973083,177.760757 227.814713,189.333405 222.837357,202.188889 
	C208.926743,238.117172 206.985977,275.445374 211.021652,313.307648 
	C211.979385,322.292755 215.441849,329.993042 225.069931,333.188141 
	C234.544876,336.332367 242.627975,333.484619 249.293671,326.931793 
	C253.681213,322.618561 257.036804,317.255615 260.854523,312.362732 
	C260.464630,311.841583 260.074768,311.320404 259.684906,310.799225 
	C255.053116,311.578888 250.423218,312.369873 245.789185,313.135803 
	C235.872314,314.774933 232.054825,310.847534 233.581192,300.956055 
	C236.169540,284.182648 238.610947,267.386322 241.051682,250.590530 
	C241.896927,244.773987 244.171219,242.648941 250.115707,241.918289 
	C261.519073,240.516708 272.866333,238.421570 284.306976,237.638016 
	C292.849335,237.052948 301.797424,236.778793 310.043274,238.656601 
	C326.747375,242.460556 336.468048,254.761459 336.708710,273.228882 
	C336.876099,286.070557 335.213104,299.132660 332.698120,311.763763 
	C329.436401,328.144928 322.915741,343.568726 313.198486,357.301117 
	C297.955841,378.842010 276.523254,390.597260 250.880798,394.924744 
	C231.746658,398.153900 212.686783,397.469391 194.049301,391.622162 
	C175.945816,385.942444 163.041092,374.091431 154.374496,357.389099 
	C144.557892,338.470490 141.219467,318.177551 141.016861,297.082031 
	C140.757111,270.037628 141.459091,243.096695 147.784409,216.639603 
	C156.605438,179.743729 172.527924,147.081482 204.249619,124.198326 
	C224.420807,109.647400 246.979721,103.104271 271.895599,104.800674 
	C289.163391,105.976349 305.237701,110.598717 317.589172,123.185226 
	C323.516876,129.225739 327.598267,137.078049 332.672852,144.461594 
M309.773041,264.285217 
	C309.773041,276.421539 309.773041,288.557892 309.773041,301.657196 
	C311.371796,300.361877 312.685974,299.796692 312.691315,299.219421 
	C312.808685,286.529083 312.780914,273.837433 312.780914,261.146027 
	C312.121033,261.050781 311.461151,260.955566 310.801270,260.860321 
	C310.386414,261.743500 309.971527,262.626648 309.773041,264.285217 
M288.066101,173.521042 
	C289.752289,173.251648 291.438446,172.982239 293.124634,172.712830 
	C293.066711,172.169205 293.008759,171.625595 292.950836,171.081970 
	C289.814667,171.081970 286.678528,171.081970 283.542358,171.081970 
	C283.503754,171.341782 283.465149,171.601578 283.426514,171.861389 
	C284.780640,172.347717 286.134766,172.834045 288.066101,173.521042 
z"/>
<path fill="#010101" opacity="1.000000" stroke="none" 
	d="
M260.156342,429.002930 
	C263.542358,429.002899 266.928375,429.002899 270.314392,429.002899 
	C270.277618,429.602081 270.240814,430.201233 270.204041,430.800415 
	C241.035187,433.397888 212.075546,432.935242 183.657120,424.556732 
	C183.690781,424.037720 183.724457,423.518707 183.758133,422.999695 
	C186.814590,423.275085 189.902832,423.361420 192.920303,423.868713 
	C197.849716,424.697479 202.702301,426.009277 207.643387,426.735840 
	C214.073029,427.681274 220.557480,428.253815 227.734207,429.346130 
	C236.828873,429.803589 245.207855,429.974274 253.586319,429.950897 
	C255.777191,429.944763 257.966370,429.335297 260.156342,429.002930 
z"/>
<path fill="#708B53" opacity="1.000000" stroke="none" 
	d="
M259.678650,428.952515 
	C257.966370,429.335297 255.777191,429.944763 253.586319,429.950897 
	C245.207855,429.974274 236.828873,429.803589 228.169617,429.373840 
	C238.326401,428.995544 248.763672,428.948822 259.678650,428.952515 
z"/>
<path fill="#E65643" opacity="1.000000" stroke="none" 
	d="
M95.974823,134.750534 
	C97.144943,133.321808 98.315071,131.893082 99.485199,130.464355 
	C100.024681,130.873566 100.564156,131.282776 101.103638,131.692001 
	C99.699837,133.461273 98.296036,135.230560 96.556610,136.666321 
	C96.138924,135.805389 96.056870,135.277969 95.974823,134.750534 
z"/>
<path fill="#CB6347" opacity="1.000000" stroke="none" 
	d="
M95.699127,134.785187 
	C96.056870,135.277969 96.138924,135.805389 96.276482,136.728928 
	C96.323166,138.764175 97.890305,141.145493 94.198334,141.165375 
	C93.815102,140.819931 93.665306,140.469177 93.288109,139.593414 
	C93.314552,138.923203 93.542244,138.744644 93.786491,138.319397 
	C94.152458,137.272125 94.475716,136.438187 94.837952,135.262451 
	C95.059090,134.887054 95.241257,134.853455 95.699127,134.785187 
z"/>
<path fill="#44A05A" opacity="1.000000" stroke="none" 
	d="
M119.002640,111.019806 
	C119.468063,110.985764 119.950256,110.945061 120.792236,110.954803 
	C120.449303,113.701035 118.820312,114.256729 116.825409,112.634705 
	C117.824554,111.805756 118.426697,111.391846 119.028839,110.977936 
	C119.028839,110.977943 119.019409,111.013145 119.002640,111.019806 
z"/>
<path fill="#589757" opacity="1.000000" stroke="none" 
	d="
M176.079117,79.658646 
	C175.997772,79.446136 176.011108,79.529236 176.243927,79.363106 
	C176.663635,79.088547 176.850525,78.980118 177.037415,78.871674 
	C177.228195,79.326469 177.418961,79.781265 177.609711,80.236053 
	C177.126633,80.114426 176.643539,79.992783 176.079117,79.658646 
z"/>
<path fill="#000000" opacity="1.000000" stroke="none" 
	d="
M177.841919,75.486595 
	C176.757553,75.765297 175.498825,75.717255 174.155457,75.377411 
	C175.269714,75.110359 176.468628,75.135109 177.841919,75.486595 
z"/>
<path fill="#A6744C" opacity="1.000000" stroke="none" 
	d="
M118.499077,110.947769 
	C118.426697,111.391846 117.824554,111.805756 116.609955,112.359398 
	C115.997505,112.499130 115.885719,112.271744 115.919113,112.179176 
	C115.952499,112.086609 115.848442,111.711464 115.894623,111.623810 
	C116.616982,111.329964 117.293152,111.123779 118.499077,110.947769 
z"/>
<path fill="#D75D45" opacity="1.000000" stroke="none" 
	d="
M174.685852,80.204750 
	C174.769852,80.003571 174.811920,80.064636 174.846313,80.048737 
	C174.751556,80.313766 174.622375,80.594704 174.493195,80.875633 
	C174.529419,80.719063 174.565628,80.562492 174.685852,80.204750 
z"/>
<path fill="#D75D45" opacity="1.000000" stroke="none" 
	d="
M177.027313,78.685333 
	C176.850525,78.980118 176.663635,79.088547 176.202316,79.369370 
	C176.039429,79.103775 176.150986,78.665787 176.647049,78.176918 
	C177.031555,78.126030 177.017227,78.498993 177.027313,78.685333 
z"/>
<path fill="#D75D45" opacity="1.000000" stroke="none" 
	d="
M178.740128,77.689735 
	C178.765106,77.514908 179.077835,77.281708 179.687943,77.007584 
	C179.666168,77.188225 179.347031,77.409790 178.740128,77.689735 
z"/>
<path fill="#FF594F" opacity="1.000000" stroke="none" 
	d="
M309.664856,263.897522 
	C309.971527,262.626648 310.386414,261.743500 310.801270,260.860321 
	C311.461151,260.955566 312.121033,261.050781 312.780914,261.146027 
	C312.780914,273.837433 312.808685,286.529083 312.691315,299.219421 
	C312.685974,299.796692 311.371796,300.361877 309.773041,301.657196 
	C309.773041,288.557892 309.773041,276.421539 309.664856,263.897522 
z"/>
<path fill="#FF6C63" opacity="1.000000" stroke="none" 
	d="
M287.777496,173.420715 
	C286.134766,172.834045 284.780640,172.347717 283.426514,171.861389 
	C283.465149,171.601578 283.503754,171.341782 283.542358,171.081970 
	C286.678528,171.081970 289.814667,171.081970 292.950836,171.081970 
	C293.008759,171.625595 293.066711,172.169205 293.124634,172.712830 
	C291.438446,172.982239 289.752289,173.251648 287.777496,173.420715 
z"/>
</svg>