<svg width="32" height="32" viewBox="0 0 32 32" fill="none" xmlns="http://www.w3.org/2000/svg">
<g id="New CN logos">
<path id="Vector" d="M16 32C24.8366 32 32 24.8366 32 16C32 7.16344 24.8366 0 16 0C7.16344 0 0 7.16344 0 16C0 24.8366 7.16344 32 16 32Z" fill="white"/>
<path id="Vector_2" d="M5.80106 16.0506C5.75317 17.6826 6.04053 19.3147 6.56858 20.8982C7.04874 22.2426 7.96117 23.3941 9.16218 24.2096C10.5548 25.0735 12.1524 25.4096 13.8189 25.4096H24.0459V20.596H13.8029C11.3014 20.596 10.0992 18.896 10.0992 16.0603V16.0627C10.0992 13.227 11.3014 11.5331 13.8029 11.5331H24.0459V6.7207H13.8189C12.2028 6.7207 10.5548 7.05682 9.16218 7.92076C7.96117 8.73617 7.04997 9.8877 6.56858 11.2322C6.04053 12.8157 5.75317 14.4477 5.80106 16.0797" fill="url(#paint0_linear_6639_37644)"/>
<path id="Vector_3" fill-rule="evenodd" clip-rule="evenodd" d="M12.0137 15.0645L16.8153 15.9818C16.8153 15.9818 13.2933 19.6402 12.0137 15.0645Z" fill="#414141"/>
<path id="Vector_4" fill-rule="evenodd" clip-rule="evenodd" d="M23.2739 15.082L18.6196 16.0479C18.6196 16.0479 22.6513 19.6675 23.2739 15.082Z" fill="#414141"/>
</g>
<defs>
<linearGradient id="paint0_linear_6639_37644" x1="5.79615" y1="16.0652" x2="24.0459" y2="16.0652" gradientUnits="userSpaceOnUse">
<stop stop-color="#F16222"/>
<stop offset="0.26" stop-color="#F37421"/>
<stop offset="0.71" stop-color="#F68D1E"/>
<stop offset="1" stop-color="#F7981D"/>
</linearGradient>
</defs>
</svg>
